<?xml version="1.0" encoding="utf-8"?>
<!-- Generator: Adobe Illustrator 24.3.0, SVG Export Plug-In . SVG Version: 6.00 Build 0)  -->
<svg version="1.1" xmlns="http://www.w3.org/2000/svg" xmlns:xlink="http://www.w3.org/1999/xlink" x="0px" y="0px"
	 viewBox="0 0 470 320" enable-background="new 0 0 470 320" xml:space="preserve">
<g id="Ebene_1">
</g>
<g id="Ebene_2">
	<path fill="none" stroke="#3A3F57" stroke-width="2" stroke-linejoin="round" stroke-miterlimit="10" d="M130.2,235.7h-46
		c-1.6,0-2.9,1.3-2.9,2.9v58c0,1.6,1.3,2.9,2.9,2.9h46c1.6,0,2.9-1.3,2.9-2.9v-58C133.1,237,131.8,235.7,130.2,235.7z"/>
	
		<rect x="87.1" y="240.8" fill="none" stroke="#3A3F57" stroke-width="2" stroke-linejoin="round" stroke-miterlimit="10" width="41.1" height="49.5"/>
	
		<line fill="none" stroke="#3A3F57" stroke-width="2" stroke-linejoin="round" stroke-miterlimit="10" x1="100.3" y1="289.4" x2="100.3" y2="284.1"/>
	
		<line fill="none" stroke="#3A3F57" stroke-width="2" stroke-linejoin="round" stroke-miterlimit="10" x1="115" y1="289.4" x2="115" y2="284.1"/>
	<path fill="none" stroke="#3A3F57" stroke-width="2" stroke-linejoin="round" stroke-miterlimit="10" d="M120.6,290.3
		c0,0,0-2.2,0-7.7c0-5.4-4.8-9.9-13-9.9s-13,4.2-13,8.8s0,8.8,0,8.8"/>
	<path fill="none" stroke="#3A3F57" stroke-width="2" stroke-linejoin="round" stroke-miterlimit="10" d="M46.1,236.9v14.2
		c0,0-0.7,2.8-3.3,2.8c-2.6,0-2.5-2.5-2.5-2.5v-8.7c0,0,0-4.2,0-8.8s4.8-8.8,13-8.8s13,4.5,13,9.9s0,7.7,0,7.7v8.7
		c0,0,0,2.5-2.4,2.5c-2.4,0-2.9-2.3-2.9-2.3v-14.7"/>
	<path fill="none" stroke="#3A3F57" stroke-width="2" stroke-linejoin="round" stroke-miterlimit="10" d="M107.5,267L107.5,267
		c-3.3,0-6-2.7-6-6v-2.6c0-3.3,2.7-6,6-6h0c3.3,0,6,2.7,6,6v2.6C113.5,264.4,110.8,267,107.5,267z"/>
	<path fill="none" stroke="#3A3F57" stroke-width="2" stroke-linejoin="round" stroke-miterlimit="10" d="M53.5,219.6L53.5,219.6
		c-3.3,0-6-2.7-6-6V211c0-3.3,2.7-6,6-6h0c3.3,0,6,2.7,6,6v2.6C59.4,216.9,56.8,219.6,53.5,219.6z"/>
	<path fill="none" stroke="#3A3F57" stroke-width="2" stroke-linejoin="round" stroke-miterlimit="10" d="M98.8,228.2v-37.3
		c0-6.2-5.1-11.3-11.3-11.3H18.9c-6.2,0-11.3,5-11.3,11.3v94.4h67.5"/>
	<path fill="none" stroke="#3A3F57" stroke-width="2" stroke-linejoin="round" stroke-miterlimit="10" d="M89.6,228.3v-30.4
		c0-1.9-1.5-3.4-3.4-3.4H20.7c-1.9,0-3.4,1.5-3.4,3.4V273c0,1.9,1.5,3.4,3.4,3.4h54.2"/>
	<path fill="none" stroke="#3A3F57" stroke-width="2" stroke-linejoin="round" stroke-miterlimit="10" d="M45.4,252.5l3.1,20.2
		c0,0,0.2,3.6,5,3.6s4.8-3.6,4.8-3.6l2.6-21.1"/>
	
		<line fill="none" stroke="#3A3F57" stroke-width="2" stroke-linejoin="round" stroke-miterlimit="10" x1="25.6" y1="201.1" x2="25.6" y2="213.3"/>
	
		<line fill="none" stroke="#3A3F57" stroke-width="2" stroke-linejoin="round" stroke-miterlimit="10" x1="25.6" y1="218.7" x2="25.6" y2="225.1"/>
	
		<line fill="none" stroke="#3A3F57" stroke-width="2" stroke-linejoin="round" stroke-miterlimit="10" x1="25.6" y1="228.7" x2="25.6" y2="231.4"/>
	
		<line fill="none" stroke="#3A3F57" stroke-width="2" stroke-linejoin="round" stroke-miterlimit="10" x1="37.2" y1="207.2" x2="37.2" y2="212.3"/>
	
		<line fill="none" stroke="#3A3F57" stroke-width="2" stroke-linejoin="round" stroke-miterlimit="10" x1="37.2" y1="217" x2="37.2" y2="219.6"/>
	
		<line fill="none" stroke="#3A3F57" stroke-width="2" stroke-linejoin="round" stroke-miterlimit="10" x1="31.5" y1="237.7" x2="31.5" y2="240.1"/>
	
		<line fill="none" stroke="#3A3F57" stroke-width="2" stroke-linejoin="round" stroke-miterlimit="10" x1="31.5" y1="244.5" x2="31.5" y2="250.1"/>
	
		<line fill="none" stroke="#3A3F57" stroke-width="2" stroke-linejoin="round" stroke-miterlimit="10" x1="31.5" y1="255" x2="31.5" y2="267.6"/>
	
		<line fill="none" stroke="#3A3F57" stroke-width="2" stroke-linejoin="round" stroke-miterlimit="10" x1="69.6" y1="207.2" x2="69.6" y2="212.3"/>
	
		<line fill="none" stroke="#3A3F57" stroke-width="2" stroke-linejoin="round" stroke-miterlimit="10" x1="69.6" y1="217" x2="69.6" y2="218.7"/>
	
		<line fill="none" stroke="#3A3F57" stroke-width="2" stroke-linejoin="round" stroke-miterlimit="10" x1="81.3" y1="201.1" x2="81.3" y2="213.3"/>
	
		<line fill="none" stroke="#3A3F57" stroke-width="2" stroke-linejoin="round" stroke-miterlimit="10" x1="81.3" y1="218.7" x2="81.3" y2="223.9"/>
	<path fill="none" stroke="#3A3F57" stroke-width="2" stroke-linejoin="round" stroke-miterlimit="10" d="M382.1,207.3
		c9.4-5.9,15.6-16.3,15.6-28.2c0-18.3-14.9-33.2-33.2-33.2c-6.3,0-12.1,1.7-17.1,4.8L382.1,207.3z"/>
	<path fill="none" stroke="#3A3F57" stroke-width="2" stroke-linejoin="round" stroke-miterlimit="10" d="M372.6,267.1v-21.9
		c0,0,11.9-5.2,11.9-22.6s-2.3-15.3-2.3-15.3h-64.6c0,0-9.7,15.6-9.7,19.9s0,6.3,0,6.3s0.4,1.7,3.5,1.7c3,0,3.9,0.4,3.9,3.5
		s0,6.8,0,8.8c0,2,0.6,3.2,2.8,4.7c2.2,1.5,9.1,1.3,13.4,1.3c3.1,0,2.8,3.5,2.8,3.5v10.1"/>
	
		<circle fill="none" stroke="#3A3F57" stroke-width="2" stroke-linejoin="round" stroke-miterlimit="10" cx="327.7" cy="219.7" r="2.3"/>
	<path fill="none" stroke="#3A3F57" stroke-width="2" stroke-linejoin="round" stroke-miterlimit="10" d="M349.7,195.6
		c0,0,2.5,0.5,4.1,3.6c1.6,3.1,1.4,4.5,1.4,4.5"/>
	<path fill="none" stroke="#3A3F57" stroke-width="2" stroke-linejoin="round" stroke-miterlimit="10" d="M372.6,201.7
		c-1.2-1.3-2.3-2.1-5-2.1c-2.7,0-10.1-2.1-10.1-8.7c0-6.7,5.9-6.4,10.7-6.4"/>
	<path fill="none" stroke="#3A3F57" stroke-width="2" stroke-linejoin="round" stroke-miterlimit="10" d="M371.4,189.7
		c0,0-3.3-0.5-4.9,1.3"/>
	<path fill="none" stroke="#3A3F57" stroke-width="2" stroke-linejoin="round" stroke-miterlimit="10" d="M319.4,207.2v-3.5
		c0,0,2-7,7-7s5.7,1.7,7,3"/>
	<path fill="none" stroke="#3A3F57" stroke-width="2" stroke-linejoin="round" stroke-miterlimit="10" d="M335.5,186.8
		c0,0,3.3-9,11.9-9s13.2,7.6,13.2,7.6"/>
	<path fill="none" stroke="#3A3F57" stroke-width="2" stroke-linejoin="round" stroke-miterlimit="10" d="M352.5,188.4
		c-2.3,0-7.8,0.6-7.8,4.7c0,0-3.6-6.5-11.2-6.5c-7.6,0-8.9,7.6-8.9,7.6v2.9"/>
	
		<line fill="none" stroke="#3A3F57" stroke-width="2" stroke-linejoin="round" stroke-miterlimit="10" x1="344.6" y1="193.1" x2="344.6" y2="199.7"/>
	<path fill="none" stroke="#3A3F57" stroke-width="2" stroke-linejoin="round" stroke-miterlimit="10" d="M339.4,197
		c0,0,1.8,3.3,1.1,4.7c-0.7,1.4-1.9,2-1.9,2"/>
	<path fill="none" stroke="#3A3F57" stroke-width="2" stroke-linejoin="round" stroke-miterlimit="10" d="M295.8,160.2
		c-1.7,5.4-7,9-12.8,8.4c-6.7-0.7-11.6-6.6-11-13.4c0.7-6.7,6.6-11.6,13.4-11c5.6,0.6,9.9,4.8,10.8,10.1l27,2.7
		c1.4,0.1,2.4,1.3,2.2,2.7l-1.2,11.9c-0.1,1.4-1.3,2.4-2.7,2.2l-2.2-0.2c-1.4-0.1-2.4-1.3-2.2-2.7l0.8-8.6l-5-0.5l-0.3,3.4
		c-0.1,1.4-1.3,2.4-2.7,2.2l-2.2-0.2c-1.4-0.1-2.4-1.3-2.2-2.7l0.3-3.4L295.8,160.2z"/>
	
		<ellipse transform="matrix(0.1533 -0.9882 0.9882 0.1533 86.0755 413.2519)" fill="none" stroke="#3A3F57" stroke-width="2" stroke-linejoin="round" stroke-miterlimit="10" cx="284.2" cy="156.4" rx="4.8" ry="4.8"/>
	<path fill="none" stroke="#3A3F57" stroke-width="2" stroke-linejoin="round" stroke-miterlimit="10" d="M262,15.2h1.1
		c0.8,0,1.4,0.6,1.4,1.4v76.7c0,0.8-0.6,1.4-1.4,1.4H262c-0.8,0-1.4-0.6-1.4-1.4V16.6C260.5,15.8,261.2,15.2,262,15.2z"/>
	<path fill="none" stroke="#3A3F57" stroke-width="2" stroke-linejoin="round" stroke-miterlimit="10" d="M223.1,15.2h1.1
		c0.8,0,1.4,0.6,1.4,1.4v76.7c0,0.8-0.6,1.4-1.4,1.4h-1.1c-0.8,0-1.4-0.6-1.4-1.4V16.6C221.7,15.8,222.3,15.2,223.1,15.2z"/>
	<path fill="none" stroke="#3A3F57" stroke-width="2" stroke-linejoin="round" stroke-miterlimit="10" d="M219.1,15.2h1.1
		c0.8,0,1.4,0.6,1.4,1.4v76.7c0,0.8-0.6,1.4-1.4,1.4h-1.1c-0.8,0-1.4-0.6-1.4-1.4V16.6C217.7,15.8,218.3,15.2,219.1,15.2z"/>
	<path fill="none" stroke="#3A3F57" stroke-width="2" stroke-linejoin="round" stroke-miterlimit="10" d="M182.7,77.6v15.7
		c0,0.8-0.6,1.4-1.4,1.4h-1.1c-0.8,0-1.4-0.6-1.4-1.4V77.6"/>
	<path fill="none" stroke="#3A3F57" stroke-width="2" stroke-linejoin="round" stroke-miterlimit="10" d="M178.8,63.8V16.6
		c0-0.8,0.6-1.4,1.4-1.4h1.1c0.8,0,1.4,0.6,1.4,1.4v47.2"/>
	
		<line fill="none" stroke="#3A3F57" stroke-width="2" stroke-linejoin="round" stroke-miterlimit="10" x1="225.6" y1="16.6" x2="260.5" y2="16.6"/>
	
		<line fill="none" stroke="#3A3F57" stroke-width="2" stroke-linejoin="round" stroke-miterlimit="10" x1="225.6" y1="21" x2="260.5" y2="21"/>
	
		<line fill="none" stroke="#3A3F57" stroke-width="2" stroke-linejoin="round" stroke-miterlimit="10" x1="225.6" y1="88.3" x2="260.5" y2="88.3"/>
	<path fill="none" stroke="#3A3F57" stroke-width="2" stroke-linejoin="round" stroke-miterlimit="10" d="M255,30.2h-24.2
		c-0.6,0-1.1-0.5-1.1-1.1v-2.9c0-0.6,0.5-1.1,1.1-1.1H255c0.6,0,1.1,0.5,1.1,1.1v2.9C256.1,29.7,255.6,30.2,255,30.2z"/>
	<path fill="none" stroke="#3A3F57" stroke-width="2" stroke-linejoin="round" stroke-miterlimit="10" d="M255,35.3h-24.2
		c-0.6,0-1.1-0.5-1.1-1.1v-2.9c0-0.6,0.5-1.1,1.1-1.1H255c0.6,0,1.1,0.5,1.1,1.1v2.9C256.1,34.8,255.6,35.3,255,35.3z"/>
	<path fill="none" stroke="#3A3F57" stroke-width="2" stroke-linejoin="round" stroke-miterlimit="10" d="M255,46.9h-24.2
		c-0.6,0-1.1-0.5-1.1-1.1v-2.9c0-0.6,0.5-1.1,1.1-1.1H255c0.6,0,1.1,0.5,1.1,1.1v2.9C256.1,46.4,255.6,46.9,255,46.9z"/>
	<path fill="none" stroke="#3A3F57" stroke-width="2" stroke-linejoin="round" stroke-miterlimit="10" d="M255,52h-24.2
		c-0.6,0-1.1-0.5-1.1-1.1V48c0-0.6,0.5-1.1,1.1-1.1H255c0.6,0,1.1,0.5,1.1,1.1v2.9C256.1,51.5,255.6,52,255,52z"/>
	<path fill="none" stroke="#3A3F57" stroke-width="2" stroke-linejoin="round" stroke-miterlimit="10" d="M255,61.8h-24.2
		c-0.6,0-1.1-0.5-1.1-1.1v-2.9c0-0.6,0.5-1.1,1.1-1.1H255c0.6,0,1.1,0.5,1.1,1.1v2.9C256.1,61.3,255.6,61.8,255,61.8z"/>
	<path fill="none" stroke="#3A3F57" stroke-width="2" stroke-linejoin="round" stroke-miterlimit="10" d="M255,66.9h-24.2
		c-0.6,0-1.1-0.5-1.1-1.1v-2.9c0-0.6,0.5-1.1,1.1-1.1H255c0.6,0,1.1,0.5,1.1,1.1v2.9C256.1,66.4,255.6,66.9,255,66.9z"/>
	<path fill="none" stroke="#3A3F57" stroke-width="2" stroke-linejoin="round" stroke-miterlimit="10" d="M255,77.6h-24.2
		c-0.6,0-1.1-0.5-1.1-1.1v-2.9c0-0.6,0.5-1.1,1.1-1.1H255c0.6,0,1.1,0.5,1.1,1.1v2.9C256.1,77.1,255.6,77.6,255,77.6z"/>
	<path fill="none" stroke="#3A3F57" stroke-width="2" stroke-linejoin="round" stroke-miterlimit="10" d="M255,82.7h-24.2
		c-0.6,0-1.1-0.5-1.1-1.1v-2.9c0-0.6,0.5-1.1,1.1-1.1H255c0.6,0,1.1,0.5,1.1,1.1v2.9C256.1,82.2,255.6,82.7,255,82.7z"/>
	
		<line fill="none" stroke="#3A3F57" stroke-width="2" stroke-linejoin="round" stroke-miterlimit="10" x1="238.8" y1="30.2" x2="244.1" y2="24.9"/>
	
		<line fill="none" stroke="#3A3F57" stroke-width="2" stroke-linejoin="round" stroke-miterlimit="10" x1="238.8" y1="35.4" x2="244.1" y2="30.2"/>
	
		<line fill="none" stroke="#3A3F57" stroke-width="2" stroke-linejoin="round" stroke-miterlimit="10" x1="238.8" y1="46.9" x2="244.1" y2="41.6"/>
	
		<line fill="none" stroke="#3A3F57" stroke-width="2" stroke-linejoin="round" stroke-miterlimit="10" x1="238.8" y1="52.1" x2="244.1" y2="46.9"/>
	
		<line fill="none" stroke="#3A3F57" stroke-width="2" stroke-linejoin="round" stroke-miterlimit="10" x1="238.8" y1="61.8" x2="244.1" y2="56.5"/>
	
		<line fill="none" stroke="#3A3F57" stroke-width="2" stroke-linejoin="round" stroke-miterlimit="10" x1="238.8" y1="67.1" x2="244.1" y2="61.8"/>
	
		<line fill="none" stroke="#3A3F57" stroke-width="2" stroke-linejoin="round" stroke-miterlimit="10" x1="238.8" y1="77.7" x2="244.1" y2="72.4"/>
	
		<line fill="none" stroke="#3A3F57" stroke-width="2" stroke-linejoin="round" stroke-miterlimit="10" x1="238.8" y1="83" x2="244.1" y2="77.7"/>
	
		<line fill="none" stroke="#3A3F57" stroke-width="2" stroke-linejoin="round" stroke-miterlimit="10" x1="182.8" y1="16.6" x2="217.7" y2="16.6"/>
	
		<line fill="none" stroke="#3A3F57" stroke-width="2" stroke-linejoin="round" stroke-miterlimit="10" x1="182.8" y1="21" x2="217.7" y2="21"/>
	
		<line fill="none" stroke="#3A3F57" stroke-width="2" stroke-linejoin="round" stroke-miterlimit="10" x1="182.8" y1="88.3" x2="217.7" y2="88.3"/>
	<path fill="none" stroke="#3A3F57" stroke-width="2" stroke-linejoin="round" stroke-miterlimit="10" d="M212.2,30.2h-24.2
		c-0.6,0-1.1-0.5-1.1-1.1v-2.9c0-0.6,0.5-1.1,1.1-1.1h24.2c0.6,0,1.1,0.5,1.1,1.1v2.9C213.3,29.7,212.8,30.2,212.2,30.2z"/>
	<path fill="none" stroke="#3A3F57" stroke-width="2" stroke-linejoin="round" stroke-miterlimit="10" d="M212.2,35.3h-24.2
		c-0.6,0-1.1-0.5-1.1-1.1v-2.9c0-0.6,0.5-1.1,1.1-1.1h24.2c0.6,0,1.1,0.5,1.1,1.1v2.9C213.3,34.8,212.8,35.3,212.2,35.3z"/>
	<path fill="none" stroke="#3A3F57" stroke-width="2" stroke-linejoin="round" stroke-miterlimit="10" d="M212.2,46.9h-24.2
		c-0.6,0-1.1-0.5-1.1-1.1v-2.9c0-0.6,0.5-1.1,1.1-1.1h24.2c0.6,0,1.1,0.5,1.1,1.1v2.9C213.3,46.4,212.8,46.9,212.2,46.9z"/>
	<path fill="none" stroke="#3A3F57" stroke-width="2" stroke-linejoin="round" stroke-miterlimit="10" d="M212.2,52h-24.2
		c-0.6,0-1.1-0.5-1.1-1.1V48c0-0.6,0.5-1.1,1.1-1.1h24.2c0.6,0,1.1,0.5,1.1,1.1v2.9C213.3,51.5,212.8,52,212.2,52z"/>
	<path fill="none" stroke="#3A3F57" stroke-width="2" stroke-linejoin="round" stroke-miterlimit="10" d="M212.2,61.8h-24.2
		c-0.6,0-1.1-0.5-1.1-1.1v-2.9c0-0.6,0.5-1.1,1.1-1.1h24.2c0.6,0,1.1,0.5,1.1,1.1v2.9C213.3,61.3,212.8,61.8,212.2,61.8z"/>
	<path fill="none" stroke="#3A3F57" stroke-width="2" stroke-linejoin="round" stroke-miterlimit="10" d="M212.2,66.9h-24.2
		c-0.6,0-1.1-0.5-1.1-1.1v-2.9c0-0.6,0.5-1.1,1.1-1.1h24.2c0.6,0,1.1,0.5,1.1,1.1v2.9C213.3,66.4,212.8,66.9,212.2,66.9z"/>
	<path fill="none" stroke="#3A3F57" stroke-width="2" stroke-linejoin="round" stroke-miterlimit="10" d="M212.2,77.6h-24.2
		c-0.6,0-1.1-0.5-1.1-1.1v-2.9c0-0.6,0.5-1.1,1.1-1.1h24.2c0.6,0,1.1,0.5,1.1,1.1v2.9C213.3,77.1,212.8,77.6,212.2,77.6z"/>
	<path fill="none" stroke="#3A3F57" stroke-width="2" stroke-linejoin="round" stroke-miterlimit="10" d="M212.2,82.7h-24.2
		c-0.6,0-1.1-0.5-1.1-1.1v-2.9c0-0.6,0.5-1.1,1.1-1.1h24.2c0.6,0,1.1,0.5,1.1,1.1v2.9C213.3,82.2,212.8,82.7,212.2,82.7z"/>
	
		<line fill="none" stroke="#3A3F57" stroke-width="2" stroke-linejoin="round" stroke-miterlimit="10" x1="195.9" y1="30.2" x2="201.2" y2="24.9"/>
	
		<line fill="none" stroke="#3A3F57" stroke-width="2" stroke-linejoin="round" stroke-miterlimit="10" x1="195.9" y1="35.4" x2="201.2" y2="30.2"/>
	
		<line fill="none" stroke="#3A3F57" stroke-width="2" stroke-linejoin="round" stroke-miterlimit="10" x1="195.9" y1="46.9" x2="201.2" y2="41.6"/>
	
		<line fill="none" stroke="#3A3F57" stroke-width="2" stroke-linejoin="round" stroke-miterlimit="10" x1="195.9" y1="52.1" x2="201.2" y2="46.9"/>
	
		<line fill="none" stroke="#3A3F57" stroke-width="2" stroke-linejoin="round" stroke-miterlimit="10" x1="195.9" y1="61.8" x2="201.2" y2="56.5"/>
	
		<line fill="none" stroke="#3A3F57" stroke-width="2" stroke-linejoin="round" stroke-miterlimit="10" x1="195.9" y1="67.1" x2="201.2" y2="61.8"/>
	
		<line fill="none" stroke="#3A3F57" stroke-width="2" stroke-linejoin="round" stroke-miterlimit="10" x1="195.9" y1="77.7" x2="201.2" y2="72.4"/>
	
		<line fill="none" stroke="#3A3F57" stroke-width="2" stroke-linejoin="round" stroke-miterlimit="10" x1="195.9" y1="83" x2="201.2" y2="77.7"/>
	<path fill="none" stroke="#3A3F57" stroke-width="2" stroke-linejoin="round" stroke-miterlimit="10" d="M205.2,120.4
		c-3.2,0-6.1,0-7.4,0c-3.5,0-6.2-2.6-6.2-5.1c0-2.5,0-37.7,0-37.7s1.2-4-4.8-4"/>
	<path fill="none" stroke="#3A3F57" stroke-width="2" stroke-linejoin="round" stroke-miterlimit="10" d="M201.7,88.3
		c0,0,0,7.4,0,11c0,3.6,1.7,5.1,3.4,5.1s8.9,0,12.5,0s6,2.7,6,8.7s-3.4,7.2-6,7.2c-0.8,0-2.7,0-5,0"/>
	<path fill="none" stroke="#3A3F57" stroke-width="2" stroke-linejoin="round" stroke-miterlimit="10" d="M207.4,118.8l5.3-0.2v3.7
		l-5.2-0.3c-0.9,0-1.6-0.7-1.6-1.6v-0.2C206,119.5,206.6,118.8,207.4,118.8z"/>
	<path fill="none" stroke="#3A3F57" stroke-width="2" stroke-linejoin="round" stroke-miterlimit="10" d="M207.9,88.3
		c0,0,0,7.4,0,11c0,3.6,1.7,5.1,3.4,5.1c0.7,0,2.4,0,4.3,0"/>
	<path fill="none" stroke="#3A3F57" stroke-width="2" stroke-linejoin="round" stroke-miterlimit="10" d="M167.6,77.6h-1.7
		c-1,0-1.8-0.8-1.8-1.8V65.6c0-1,0.8-1.8,1.8-1.8H185c1,0,1.8,0.8,1.8,1.8v10.3c0,1-0.8,1.8-1.8,1.8h-9.3"/>
	<path fill="none" stroke="#3A3F57" stroke-width="2" stroke-linejoin="round" stroke-miterlimit="10" d="M145.2,66.9
		c0,0,0,21.9,0,23.9s-1.3,3.9-3.6,3.9s-3.4-2.2-3.4-3.6s0-26.2,0-26.2c0-4.4,3.5-8.7,7-12.2c3.5-3.5,8.2-3.2,8.2-3.2v-1.9"/>
	<path fill="none" stroke="#3A3F57" stroke-width="2" stroke-linejoin="round" stroke-miterlimit="10" d="M175.9,63.8
		c-0.5-4-3.7-7.9-6.9-11.1c-3.5-3.5-8.2-3.2-8.2-3.2v-1.9"/>
	
		<line fill="none" stroke="#3A3F57" stroke-width="2" stroke-linejoin="round" stroke-miterlimit="10" x1="145.2" y1="77.6" x2="165.9" y2="77.6"/>
	<path fill="none" stroke="#3A3F57" stroke-width="2" stroke-linejoin="round" stroke-miterlimit="10" d="M147.5,51
		c0,0,3.6,6.7,10.5,6.7v19.9"/>
	<path fill="none" stroke="#3A3F57" stroke-width="2" stroke-linejoin="round" stroke-miterlimit="10" d="M168,51.8
		c-1.2,1.8-4.6,5.9-10,5.9v19.9"/>
	<path fill="none" stroke="#3A3F57" stroke-width="2" stroke-linejoin="round" stroke-miterlimit="10" d="M141.6,94.7l-0.5,8.6
		c0,0-0.3,4.1,16.5,4.1s15.5-3.7,15.5-3.7s-0.6-15.2-3.9-21.6h-24"/>
	<path fill="none" stroke="#3A3F57" stroke-width="2" stroke-linejoin="round" stroke-miterlimit="10" d="M173.4,76.3H170
		c-1.3,0-2.3,1-2.3,2.3v1.2c0,1.3,1,2.3,2.3,2.3h3.5c1.3,0,2.3-1,2.3-2.3v-1.2C175.8,77.3,174.7,76.3,173.4,76.3z"/>
	<path fill="none" stroke="#3A3F57" stroke-width="2" stroke-linejoin="round" stroke-miterlimit="10" d="M147.5,106.7l1.1,9.7v4.5
		c0,0,0.2,1.4,2.5,1.4c2.2,0,19.6,0,19.6,0s0,0.3,0-1.3c0-1.6-3.9-4.7-4.7-4.6c-0.9,0.1,0-9.4,0-9.4"/>
	
		<line fill="none" stroke="#3A3F57" stroke-width="2" stroke-linejoin="round" stroke-miterlimit="10" x1="157.6" y1="107.4" x2="157.6" y2="116.3"/>
	
		<line fill="none" stroke="#3A3F57" stroke-width="2" stroke-linejoin="round" stroke-miterlimit="10" x1="148.6" y1="116.3" x2="165.9" y2="116.3"/>
	<path fill="none" stroke="#3A3F57" stroke-width="2" stroke-linejoin="round" stroke-miterlimit="10" d="M157.6,116.3
		c0,0,4.7,1.6,4.8,5.9"/>
	<path fill="none" stroke="#3A3F57" stroke-width="2" stroke-linejoin="round" stroke-miterlimit="10" d="M172.1,56.2
		c1,0,2.1-0.3,1.7-1.8c-0.7-2.5-1.1-4.1-1.1-7.5s0.8-3.8,0.8-12.8s-7.7-17.1-17.1-17.1S139.3,25,139.3,34s0.8,9.4,0.8,12.8
		s-0.4,5-1.1,7.5c-0.7,2.5,3.2,1.6,3.2,1.6"/>
	<path fill="none" stroke="#3A3F57" stroke-width="2" stroke-linejoin="round" stroke-miterlimit="10" d="M154.2,24.8
		c0,0,1.5,4.2,5.6,6.5s9.8,2.6,9.8,2.6l0,0c0.1,0.7,0.2,1.4,0.2,2.2c0,6.5-5.3,11.8-11.8,11.8c-6.5,0-11.8-5.3-11.8-11.8
		C146.2,30.8,149.5,26.4,154.2,24.8L154.2,24.8z"/>
	<circle fill="#3A3F57" cx="156" cy="33.7" r="1.3"/>
	<path fill="none" stroke="#3A3F57" stroke-width="2" stroke-linejoin="round" stroke-miterlimit="10" d="M158,41.3
		c0,0,0.9,1.3,2.8,1.3c1.9,0,3-1.4,3-1.4"/>
</g>
<g id="Ebene_3">
</g>
</svg>
