<?xml version="1.0" encoding="utf-8"?>
<!-- Generator: Adobe Illustrator 24.3.0, SVG Export Plug-In . SVG Version: 6.00 Build 0)  -->
<svg version="1.1" xmlns="http://www.w3.org/2000/svg" xmlns:xlink="http://www.w3.org/1999/xlink" x="0px" y="0px"
	 viewBox="0 0 528.6 400" enable-background="new 0 0 528.6 400" xml:space="preserve">
<g id="Ebene_1">
	<g>
		<path fill="#3A3F57" d="M136.9,82.7c-34.3,0-62.2,27.8-62.2,62.2c0,17.1,6.9,32.7,18.2,43.9l44-44V82.7z"/>
	</g>
	<g>
		<path fill="#1A1C1B" d="M136.9,144.7l-44,44c11.3,11.3,26.8,18.3,44,18.3c34.3,0,62.2-27.8,62.2-62.2c0,0,0-0.1,0-0.1H136.9z"/>
	</g>
	<path fill="none" stroke="#929396" stroke-width="2" stroke-miterlimit="10" d="M147.3,72.3v62h62.2
		C209.4,100.1,181.6,72.3,147.3,72.3z"/>
	<g>
		<rect x="220.4" y="72.3" fill="none" stroke="#3A3F57" stroke-width="2" stroke-miterlimit="10" width="22.3" height="22.3"/>
		<rect x="242.7" y="72.3" fill="none" stroke="#3A3F57" stroke-width="2" stroke-miterlimit="10" width="22.3" height="22.3"/>
		<rect x="265" y="72.3" fill="none" stroke="#3A3F57" stroke-width="2" stroke-miterlimit="10" width="22.3" height="22.3"/>
		<rect x="287.3" y="72.3" fill="none" stroke="#3A3F57" stroke-width="2" stroke-miterlimit="10" width="22.3" height="22.3"/>
		<rect x="309.6" y="72.3" fill="none" stroke="#3A3F57" stroke-width="2" stroke-miterlimit="10" width="22.3" height="22.3"/>
		<rect x="331.9" y="72.3" fill="none" stroke="#3A3F57" stroke-width="2" stroke-miterlimit="10" width="22.3" height="22.3"/>
		<rect x="220.4" y="94.6" fill="none" stroke="#3A3F57" stroke-width="2" stroke-miterlimit="10" width="22.3" height="22.3"/>
		<rect x="242.7" y="94.6" fill="none" stroke="#3A3F57" stroke-width="2" stroke-miterlimit="10" width="22.3" height="22.3"/>
		<rect x="265" y="94.6" fill="none" stroke="#3A3F57" stroke-width="2" stroke-miterlimit="10" width="22.3" height="22.3"/>
		<rect x="287.3" y="94.6" fill="none" stroke="#3A3F57" stroke-width="2" stroke-miterlimit="10" width="22.3" height="22.3"/>
		<rect x="309.6" y="94.6" fill="none" stroke="#3A3F57" stroke-width="2" stroke-miterlimit="10" width="22.3" height="22.3"/>
		<rect x="331.9" y="94.6" fill="none" stroke="#3A3F57" stroke-width="2" stroke-miterlimit="10" width="22.3" height="22.3"/>
		<rect x="220.4" y="116.9" fill="none" stroke="#3A3F57" stroke-width="2" stroke-miterlimit="10" width="22.3" height="22.3"/>
		<rect x="242.7" y="116.9" fill="none" stroke="#3A3F57" stroke-width="2" stroke-miterlimit="10" width="22.3" height="22.3"/>
		<rect x="265" y="116.9" fill="none" stroke="#3A3F57" stroke-width="2" stroke-miterlimit="10" width="22.3" height="22.3"/>
		<rect x="287.3" y="116.9" fill="none" stroke="#3A3F57" stroke-width="2" stroke-miterlimit="10" width="22.3" height="22.3"/>
		<rect x="309.6" y="116.9" fill="none" stroke="#3A3F57" stroke-width="2" stroke-miterlimit="10" width="22.3" height="22.3"/>
		<rect x="331.9" y="116.9" fill="none" stroke="#3A3F57" stroke-width="2" stroke-miterlimit="10" width="22.3" height="22.3"/>
		<rect x="220.4" y="139.2" fill="none" stroke="#3A3F57" stroke-width="2" stroke-miterlimit="10" width="22.3" height="22.3"/>
		<rect x="242.7" y="139.2" fill="none" stroke="#3A3F57" stroke-width="2" stroke-miterlimit="10" width="22.3" height="22.3"/>
		<rect x="265" y="139.2" fill="none" stroke="#3A3F57" stroke-width="2" stroke-miterlimit="10" width="22.3" height="22.3"/>
		<rect x="287.3" y="139.2" fill="none" stroke="#3A3F57" stroke-width="2" stroke-miterlimit="10" width="22.3" height="22.3"/>
		<rect x="309.6" y="139.2" fill="none" stroke="#3A3F57" stroke-width="2" stroke-miterlimit="10" width="22.3" height="22.3"/>
		<rect x="331.9" y="139.2" fill="none" stroke="#3A3F57" stroke-width="2" stroke-miterlimit="10" width="22.3" height="22.3"/>
		<rect x="220.4" y="161.5" fill="none" stroke="#3A3F57" stroke-width="2" stroke-miterlimit="10" width="22.3" height="22.3"/>
		<rect x="242.7" y="161.5" fill="none" stroke="#3A3F57" stroke-width="2" stroke-miterlimit="10" width="22.3" height="22.3"/>
		<rect x="265" y="161.5" fill="none" stroke="#3A3F57" stroke-width="2" stroke-miterlimit="10" width="22.3" height="22.3"/>
		<rect x="287.3" y="161.5" fill="none" stroke="#3A3F57" stroke-width="2" stroke-miterlimit="10" width="22.3" height="22.3"/>
		<rect x="309.6" y="161.5" fill="none" stroke="#3A3F57" stroke-width="2" stroke-miterlimit="10" width="22.3" height="22.3"/>
		<rect x="331.9" y="161.5" fill="none" stroke="#3A3F57" stroke-width="2" stroke-miterlimit="10" width="22.3" height="22.3"/>
	</g>
	<polyline fill="none" stroke="#929396" stroke-width="2" stroke-miterlimit="10" points="220.4,183.8 265,139.2 287.3,161.5 
		309.6,94.6 354.2,183.8 	"/>
	<circle fill="#1A1C1B" cx="242.7" cy="161.5" r="2.8"/>
	<circle fill="#1A1C1B" cx="265" cy="139.2" r="2.8"/>
	<circle fill="#1A1C1B" cx="287.3" cy="161.5" r="2.8"/>
	<circle fill="#1A1C1B" cx="309.6" cy="94.6" r="2.8"/>
	<circle fill="#1A1C1B" cx="331.9" cy="139.2" r="2.8"/>
	<rect x="230.6" y="86.2" fill="#929396" width="49.1" height="18.1"/>
	<rect x="86.7" y="228.8" fill="#929396" width="77.7" height="12"/>
	<rect x="86.7" y="272.4" fill="#3A3F57" width="155" height="12"/>
	<g>
		<path fill="#929396" d="M207.8,252.6v8H88.7v-8H207.8 M209.8,250.6H86.7v12h123.1V250.6L209.8,250.6z"/>
	</g>
	<rect x="86.7" y="294.2" fill="#929396" width="133.7" height="12"/>
	<g>
		<path fill="#929396" d="M172.1,318v8H88.7v-8H172.1 M174.1,316H86.7v12h87.4V316L174.1,316z"/>
	</g>
	<path fill="#1A1C1B" d="M198.2,340.7c0,0,9.4-17.4,17-17.4c7.6,0,6.9,5.6,15.2,5.6s26.9-47.1,40.5-47.1s6.6,15.3,20.9,15.3
		s13.5-31.4,27.1-31.4c13.6,0,35.6,74.9,35.6,74.9H198.2z"/>
	<g>
		<path fill="#929396" d="M376.9,73.1l10.4,10.4l-10.4,10.4l-10.4-10.4L376.9,73.1 M376.9,70.2l-13.2,13.2l13.2,13.2l13.2-13.2
			L376.9,70.2L376.9,70.2z"/>
	</g>
	
		<rect x="367.5" y="103.6" transform="matrix(0.7071 -0.7071 0.7071 0.7071 30.5164 299.5496)" fill="#1A1C1B" width="18.7" height="18.7"/>
	<polygon fill="#929396" points="365.5,329.4 388.1,329.4 376.9,145.8 	"/>
	<polygon fill="#1A1C1B" points="432.3,329.4 454.9,329.4 443.7,220.6 	"/>
	<g>
		<polygon fill="#3A3F57" points="399.2,329.1 421.8,329.1 410.5,74.1 		"/>
	</g>
	<polygon fill="#1A1C1B" points="432.3,72.3 454.9,72.3 443.6,83.5 	"/>
	<polygon fill="#1A1C1B" points="432.3,89.7 454.9,89.7 443.6,100.8 	"/>
	<polygon fill="#1A1C1B" points="432.3,107.1 454.9,107.1 443.6,118.2 	"/>
	<polyline fill="none" stroke="#1A1C1B" stroke-width="2" stroke-miterlimit="10" points="91.6,218.1 76,218.1 76,340.7 91.6,340.7 
			"/>
	<line fill="none" stroke="#3A3F57" stroke-width="2" stroke-miterlimit="10" x1="365.5" y1="340.7" x2="454.9" y2="340.7"/>
	
		<rect x="440.1" y="212" transform="matrix(0.7071 0.7071 -0.7071 0.7071 282.3683 -250.5611)" fill="#929396" width="7.2" height="7.2"/>
	<line fill="none" stroke="#929396" stroke-width="2" stroke-miterlimit="10" x1="443.6" y1="212.7" x2="443.6" y2="151"/>
	<rect x="432.3" y="128.5" fill="none" stroke="#929396" stroke-width="2" stroke-miterlimit="10" width="22.6" height="22.6"/>
	<circle fill="#929396" cx="265" cy="283.6" r="2.5"/>
	<circle fill="#929396" cx="310.9" cy="272" r="2.5"/>
	<line fill="none" stroke="#929396" stroke-width="2" stroke-miterlimit="10" x1="265" y1="281.3" x2="265" y2="217.6"/>
	<line fill="none" stroke="#929396" stroke-width="2" stroke-miterlimit="10" x1="310.9" y1="269.7" x2="310.9" y2="240.1"/>
	<polygon fill="#929396" points="248.4,195.3 248.4,217.6 259.6,217.6 265.2,223.2 270.9,217.5 281.8,217.5 281.8,195.3 	"/>
	<polygon fill="#929396" points="294.2,217.6 294.2,239.8 305.4,239.8 311,245.4 316.6,239.7 327.6,239.7 327.6,217.6 	"/>
</g>
<g id="Ebene_2">
</g>
</svg>
